<svg width="230" height="210" xml:space="preserve" xmlns:xlink="http://www.w3.org/1999/xlink" xmlns="http://www.w3.org/2000/svg"><defs><linearGradient id="b"><stop style="stop-color:#4a4a4a;stop-opacity:1" offset="0"/><stop style="stop-color:#121212;stop-opacity:1" offset=".215"/><stop style="stop-color:#000;stop-opacity:1" offset=".997"/></linearGradient><linearGradient id="a"><stop style="stop-color:#999;stop-opacity:1" offset="0"/><stop style="stop-color:#ccc;stop-opacity:1" offset=".78"/><stop style="stop-color:#999;stop-opacity:1" offset="1"/></linearGradient><linearGradient xlink:href="#a" id="e" x1="293.309" y1="310.38" x2="516.892" y2="310.38" gradientUnits="userSpaceOnUse"/><linearGradient xlink:href="#b" id="d" x1="338.105" y1="400.346" x2="593.884" y2="400.346" gradientUnits="userSpaceOnUse"/><filter style="color-interpolation-filters:sRGB" id="c" x="-.025" y="-.026" width="1.054" height="1.056"><feFlood flood-opacity="1" flood-color="#000" result="flood"/><feComposite in="flood" in2="SourceGraphic" operator="in" result="composite1"/><feGaussianBlur in="composite1" stdDeviation="1.4" result="blur"/><feOffset dx=".467" dy=".467" result="offset"/><feComposite in="SourceGraphic" in2="offset" result="composite2"/></filter></defs><g transform="matrix(.92857 0 0 .9197 -247.254 -246.934)" style="display:inline;filter:url(#c)"><path transform="matrix(.78282 0 0 .78282 25.33 69.26)" d="M339.506 300.908c-1.958 3.698-.757 15.268 4.452 22.347 14.008 19.037 45.789 51.104 45.789 51.104l51.576 56.402 5.2 85.818s7.522 4.526 11.734 5.458c4.955 1.096 10.285 1.166 15.225 0 4.417-1.043 12.18-6.09 12.18-6.09l4.566-85.257s64.308-68.158 96.547-102.895c3.4-3.663 5.378-8.755 6.09-13.702.775-5.387 1.082-11.81-2.155-16.186-5.643-7.628-16.747-9.283-25.882-11.85-20.664-5.806-42.504-6.551-63.942-7.612-25.855-1.28-51.843-.566-77.645 1.522-17.884 1.448-53.286 7.613-53.286 7.613s-13.57 3.102-19.792 6.09c-3.871 1.858-8.647 3.443-10.657 7.238z" style="fill:url(#d);fill-opacity:1;stroke:#8b8b8b;stroke-width:1px;stroke-linecap:butt;stroke-linejoin:miter;stroke-opacity:1"/><ellipse transform="matrix(.78282 0 0 .78282 73.072 66.123)" style="fill:url(#e);fill-opacity:1;fill-rule:evenodd;stroke:#8b8b8b;stroke-opacity:1" cx="405.101" cy="310.38" rx="111.291" ry="18.697"/></g></svg>