<?xml version="1.0" encoding="UTF-8" standalone="no"?>
<svg
   width="610"
   height="220"
   viewBox="0 0 610 220"
   id="svg2"
   version="1.1"
   inkscape:version="1.2 (dc2aedaf03, 2022-05-15)"
   sodipodi:docname="Logo Enhanced - Pathed Text.svg"
   inkscape:export-filename="/Users/roettger/Projects/libsquish/libSquish.png"
   inkscape:export-xdpi="119.99844"
   inkscape:export-ydpi="119.99844"
   xml:space="preserve"
   xmlns:inkscape="http://www.inkscape.org/namespaces/inkscape"
   xmlns:sodipodi="http://sodipodi.sourceforge.net/DTD/sodipodi-0.dtd"
   xmlns:xlink="http://www.w3.org/1999/xlink"
   xmlns="http://www.w3.org/2000/svg"
   xmlns:svg="http://www.w3.org/2000/svg"
   xmlns:rdf="http://www.w3.org/1999/02/22-rdf-syntax-ns#"
   xmlns:cc="http://creativecommons.org/ns#"
   xmlns:dc="http://purl.org/dc/elements/1.1/"><title
     id="title79629">libsquish</title><metadata
     id="metadata26"><rdf:RDF><cc:Work
         rdf:about=""><dc:format>image/svg+xml</dc:format><dc:type
           rdf:resource="http://purl.org/dc/dcmitype/StillImage" /><dc:title>libsquish</dc:title></cc:Work></rdf:RDF></metadata><defs
     id="defs24"><linearGradient
       inkscape:collect="always"
       id="linearGradient75301"><stop
         style="stop-color:#868686;stop-opacity:1;"
         offset="0"
         id="stop75297" /><stop
         style="stop-color:#686868;stop-opacity:1;"
         offset="1"
         id="stop75299" /></linearGradient><linearGradient
       inkscape:collect="always"
       id="linearGradient40782"><stop
         style="stop-color:#989898;stop-opacity:1;"
         offset="0"
         id="stop40778" /><stop
         style="stop-color:#7a7a7a;stop-opacity:1;"
         offset="1"
         id="stop40780" /></linearGradient><linearGradient
       inkscape:collect="always"
       id="linearGradient35079"><stop
         style="stop-color:#1c1ca3;stop-opacity:1;"
         offset="0"
         id="stop35075" /><stop
         style="stop-color:#000080;stop-opacity:1;"
         offset="1"
         id="stop35077" /></linearGradient><linearGradient
       inkscape:collect="always"
       id="linearGradient20189"><stop
         style="stop-color:#4a4a4a;stop-opacity:1;"
         offset="0"
         id="stop20185" /><stop
         style="stop-color:#121212;stop-opacity:1;"
         offset="0.21485412"
         id="stop20793" /><stop
         style="stop-color:#000000;stop-opacity:1;"
         offset="0.99734747"
         id="stop20187" /></linearGradient><linearGradient
       inkscape:collect="always"
       id="linearGradient4459"><stop
         style="stop-color:#999999;stop-opacity:1;"
         offset="0"
         id="stop11783" /><stop
         style="stop-color:#cccccc;stop-opacity:1;"
         offset="0.77984083"
         id="stop4455" /><stop
         style="stop-color:#999999;stop-opacity:1;"
         offset="1"
         id="stop4457" /></linearGradient><marker
       inkscape:stockid="DotL"
       orient="auto"
       refY="0"
       refX="0"
       id="DotL"
       style="overflow:visible"><path
         id="path3691"
         d="m -2.5,-1 c 0,2.76 -2.24,5 -5,5 -2.76,0 -5,-2.24 -5,-5 0,-2.76 2.24,-5 5,-5 2.76,0 5,2.24 5,5 z"
         style="fill-rule:evenodd;stroke:#000000;stroke-width:1pt;marker-start:none;marker-end:none"
         transform="matrix(0.8,0,0,0.8,5.92,0.8)"
         inkscape:connector-curvature="0" /></marker><marker
       inkscape:stockid="TriangleInM"
       orient="auto"
       refY="0"
       refX="0"
       id="TriangleInM"
       style="overflow:visible"><path
         id="path3766"
         d="M 5.77,0 -2.88,5 V -5 Z"
         style="fill-rule:evenodd;stroke:#000000;stroke-width:1pt;marker-start:none"
         transform="scale(-0.4)"
         inkscape:connector-curvature="0" /></marker><marker
       inkscape:stockid="TriangleOutM"
       orient="auto"
       refY="0"
       refX="0"
       id="TriangleOutM"
       style="overflow:visible"><path
         id="path3775"
         d="M 5.77,0 -2.88,5 V -5 Z"
         style="fill-rule:evenodd;stroke:#000000;stroke-width:1pt;marker-start:none"
         transform="scale(0.4)"
         inkscape:connector-curvature="0" /></marker><marker
       inkscape:stockid="DotM"
       orient="auto"
       refY="0"
       refX="0"
       id="DotM"
       style="overflow:visible"><path
         id="path3694"
         d="m -2.5,-1 c 0,2.76 -2.24,5 -5,5 -2.76,0 -5,-2.24 -5,-5 0,-2.76 2.24,-5 5,-5 2.76,0 5,2.24 5,5 z"
         style="fill-rule:evenodd;stroke:#000000;stroke-width:1pt;marker-start:none;marker-end:none"
         transform="matrix(0.4,0,0,0.4,2.96,0.4)"
         inkscape:connector-curvature="0" /></marker><marker
       inkscape:stockid="Arrow1Mend"
       orient="auto"
       refY="0"
       refX="0"
       id="Arrow1Mend"
       style="overflow:visible"><path
         id="path3638"
         d="M 0,0 5,-5 -12.5,0 5,5 Z"
         style="fill-rule:evenodd;stroke:#000000;stroke-width:1pt;marker-start:none"
         transform="matrix(-0.4,0,0,-0.4,-4,0)"
         inkscape:connector-curvature="0" /></marker><inkscape:perspective
       sodipodi:type="inkscape:persp3d"
       inkscape:vp_x="0 : 190 : 1"
       inkscape:vp_y="0 : 1000 : 0"
       inkscape:vp_z="420 : 190 : 1"
       inkscape:persp3d-origin="210 : 123.33333 : 1"
       id="perspective28" /><marker
       inkscape:stockid="DotL"
       orient="auto"
       refY="0"
       refX="0"
       id="DotL-4"
       style="overflow:visible"><path
         id="path3691-7"
         d="m -2.5,-1 c 0,2.76 -2.24,5 -5,5 -2.76,0 -5,-2.24 -5,-5 0,-2.76 2.24,-5 5,-5 2.76,0 5,2.24 5,5 z"
         style="fill-rule:evenodd;stroke:#000000;stroke-width:1pt;marker-start:none;marker-end:none"
         transform="matrix(0.8,0,0,0.8,5.92,0.8)"
         inkscape:connector-curvature="0" /></marker><marker
       inkscape:stockid="TriangleInM"
       orient="auto"
       refY="0"
       refX="0"
       id="TriangleInM-2"
       style="overflow:visible"><path
         id="path3766-8"
         d="M 5.77,0 -2.88,5 V -5 Z"
         style="fill-rule:evenodd;stroke:#000000;stroke-width:1pt;marker-start:none"
         transform="scale(-0.4)"
         inkscape:connector-curvature="0" /></marker><marker
       inkscape:stockid="TriangleOutM"
       orient="auto"
       refY="0"
       refX="0"
       id="TriangleOutM-3"
       style="overflow:visible"><path
         id="path3775-6"
         d="M 5.77,0 -2.88,5 V -5 Z"
         style="fill-rule:evenodd;stroke:#000000;stroke-width:1pt;marker-start:none"
         transform="scale(0.4)"
         inkscape:connector-curvature="0" /></marker><marker
       inkscape:stockid="DotM"
       orient="auto"
       refY="0"
       refX="0"
       id="DotM-3"
       style="overflow:visible"><path
         id="path3694-3"
         d="m -2.5,-1 c 0,2.76 -2.24,5 -5,5 -2.76,0 -5,-2.24 -5,-5 0,-2.76 2.24,-5 5,-5 2.76,0 5,2.24 5,5 z"
         style="fill-rule:evenodd;stroke:#000000;stroke-width:1pt;marker-start:none;marker-end:none"
         transform="matrix(0.4,0,0,0.4,2.96,0.4)"
         inkscape:connector-curvature="0" /></marker><marker
       inkscape:stockid="Arrow1Mend"
       orient="auto"
       refY="0"
       refX="0"
       id="Arrow1Mend-6"
       style="overflow:visible"><path
         id="path3638-3"
         d="M 0,0 5,-5 -12.5,0 5,5 Z"
         style="fill-rule:evenodd;stroke:#000000;stroke-width:1pt;marker-start:none"
         transform="matrix(-0.4,0,0,-0.4,-4,0)"
         inkscape:connector-curvature="0" /></marker><inkscape:perspective
       sodipodi:type="inkscape:persp3d"
       inkscape:vp_x="0 : 190 : 1"
       inkscape:vp_y="0 : 1000 : 0"
       inkscape:vp_z="420 : 190 : 1"
       inkscape:persp3d-origin="210 : 123.33333 : 1"
       id="perspective28-4" /><linearGradient
       inkscape:collect="always"
       xlink:href="#linearGradient4459"
       id="linearGradient4461"
       x1="293.30927"
       y1="310.38028"
       x2="516.89197"
       y2="310.38028"
       gradientUnits="userSpaceOnUse" /><linearGradient
       inkscape:collect="always"
       xlink:href="#linearGradient20189"
       id="linearGradient20191"
       x1="338.10471"
       y1="400.34622"
       x2="593.88403"
       y2="400.34622"
       gradientUnits="userSpaceOnUse" /><linearGradient
       inkscape:collect="always"
       xlink:href="#linearGradient35079"
       id="linearGradient35081"
       x1="51.017994"
       y1="261.96649"
       x2="372.14041"
       y2="261.96649"
       gradientUnits="userSpaceOnUse" /><linearGradient
       inkscape:collect="always"
       xlink:href="#linearGradient40782"
       id="linearGradient40784"
       x1="50.451214"
       y1="261.96548"
       x2="372.70718"
       y2="261.96548"
       gradientUnits="userSpaceOnUse" /><filter
       style="color-interpolation-filters:sRGB"
       inkscape:label="Drop Shadow"
       id="filter50153"
       x="-0.008826037"
       y="-0.026365545"
       width="1.0180767"
       height="1.0561161"><feFlood
         flood-opacity="1"
         flood-color="rgb(0,0,0)"
         result="flood"
         id="feFlood50143" /><feComposite
         in="flood"
         in2="SourceGraphic"
         operator="in"
         result="composite1"
         id="feComposite50145" /><feGaussianBlur
         in="composite1"
         stdDeviation="1.4"
         result="blur"
         id="feGaussianBlur50147" /><feOffset
         dx="0.46729"
         dy="0.46729"
         result="offset"
         id="feOffset50149" /><feComposite
         in="SourceGraphic"
         in2="offset"
         operator="over"
         result="composite2"
         id="feComposite50151" /></filter><linearGradient
       inkscape:collect="always"
       xlink:href="#linearGradient35079"
       id="linearGradient51724"
       gradientUnits="userSpaceOnUse"
       x1="51.017994"
       y1="261.96649"
       x2="372.14041"
       y2="261.96649" /><linearGradient
       inkscape:collect="always"
       xlink:href="#linearGradient40782"
       id="linearGradient51726"
       gradientUnits="userSpaceOnUse"
       x1="50.451214"
       y1="261.96548"
       x2="372.70718"
       y2="261.96548" /><linearGradient
       inkscape:collect="always"
       xlink:href="#linearGradient35079"
       id="linearGradient51728"
       gradientUnits="userSpaceOnUse"
       x1="51.017994"
       y1="261.96649"
       x2="372.14041"
       y2="261.96649" /><linearGradient
       inkscape:collect="always"
       xlink:href="#linearGradient75301"
       id="linearGradient51730"
       gradientUnits="userSpaceOnUse"
       x1="50.451214"
       y1="261.96548"
       x2="372.70718"
       y2="261.96548" /></defs><sodipodi:namedview
     pagecolor="#ffffff"
     bordercolor="#666666"
     borderopacity="1"
     objecttolerance="10"
     gridtolerance="10"
     guidetolerance="10"
     inkscape:pageopacity="0"
     inkscape:pageshadow="2"
     inkscape:window-width="2066"
     inkscape:window-height="1237"
     id="namedview22"
     showgrid="false"
     inkscape:zoom="1.5884133"
     inkscape:cx="232.93686"
     inkscape:cy="185.71993"
     inkscape:window-x="136"
     inkscape:window-y="120"
     inkscape:window-maximized="0"
     inkscape:current-layer="svg2"
     inkscape:showpageshadow="0"
     inkscape:pagecheckerboard="0"
     inkscape:deskcolor="#d1d1d1" /><g
     id="g3960"
     transform="matrix(1.2774265,0,0,1.2774265,-44.46142,-212.63353)"
     inkscape:label="Logo"
     style="display:inline;filter:url(#filter50153)"><g
       id="g3907"
       transform="matrix(0.72690637,0,0,0.71996495,139.8595,-23.170483)"
       inkscape:label="Filter"><path
         sodipodi:nodetypes="sscccssccsssssscss"
         transform="matrix(0.7828239,0,0,0.7828239,25.329183,69.259813)"
         inkscape:connector-curvature="0"
         id="path3105"
         d="m 339.50606,300.90773 c -1.95856,3.69785 -0.75722,15.26794 4.45166,22.34714 14.00779,19.03753 45.78914,51.10431 45.78914,51.10431 l 51.57631,56.40186 5.19946,85.81798 c 0,0 7.52237,4.52608 11.73442,5.45768 4.95508,1.09594 10.28542,1.16596 15.22449,0 4.41764,-1.04286 12.17959,-6.08979 12.17959,-6.08979 l 4.56735,-85.25713 c 0,0 64.30741,-68.15797 96.54638,-102.89439 3.40006,-3.66345 5.37777,-8.75489 6.0898,-13.70204 0.77539,-5.38744 1.0823,-11.8102 -2.15457,-16.18608 -5.64272,-7.62832 -16.74691,-9.28331 -25.88163,-11.85011 -20.66448,-5.80658 -42.50429,-6.55141 -63.94284,-7.61225 -25.85497,-1.27937 -51.84264,-0.56565 -77.64489,1.52245 -17.88376,1.44728 -53.2857,7.61224 -53.2857,7.61224 0,0 -13.56919,3.10259 -19.79183,6.0898 -3.87132,1.85844 -8.6472,3.44346 -10.65714,7.23833 z"
         style="fill:url(#linearGradient20191);fill-opacity:1;stroke:#8b8b8b;stroke-width:1px;stroke-linecap:butt;stroke-linejoin:miter;stroke-opacity:1"
         inkscape:label="Outside" /><ellipse
         transform="matrix(0.7828239,0,0,0.7828239,73.071791,66.123437)"
         id="path3905"
         style="fill:url(#linearGradient4461);fill-opacity:1;fill-rule:evenodd;stroke:#8b8b8b;stroke-opacity:1"
         cx="405.10062"
         cy="310.38028"
         rx="111.29137"
         ry="18.696951"
         inkscape:label="Inside" /></g><g
       id="g3957"
       inkscape:label="Text"
       style="fill:url(#linearGradient35081);fill-opacity:1;stroke:url(#linearGradient40784);stroke-opacity:1"><g
         aria-label="Squish"
         transform="scale(1.0257307,0.9749148)"
         id="text3041-8"
         style="font-weight:bold;font-size:85.1883px;line-height:0%;font-family:BankGothic;-inkscape-font-specification:'BankGothic, Bold';letter-spacing:0px;word-spacing:0px;display:inline;fill:url(#linearGradient51724);stroke:url(#linearGradient51726);stroke-width:1.13356"
         inkscape:label="Squish"><path
           d="m 98.891844,305.6955 q 0,6.13356 -2.385272,8.26326 -2.385273,2.12971 -8.604019,2.12971 H 60.727485 q -6.729876,0 -8.859583,-2.38527 -2.129708,-2.38527 -2.129708,-9.20034 l 9.02996,-1.87414 v 5.19649 h 31.09373 V 297.77299 H 62.431251 q -6.218746,0 -8.604018,-2.12971 -2.300084,-2.12971 -2.300084,-8.26327 v -4.85573 q 0,-6.13356 2.300084,-8.26327 2.385272,-2.1297 8.604018,-2.1297 h 24.960172 q 6.303935,0 8.604019,2.21489 2.300084,2.12971 2.300084,8.34846 l -9.02996,2.1297 v -5.02611 H 60.47192 v 9.45591 h 27.430633 q 6.218746,0 8.604019,2.1297 2.385272,2.12971 2.385272,8.26327 z"
           style="line-height:125%"
           id="path79818" /><path
           d="m 162.61269,307.48445 q 0,6.38912 -3.91866,7.92251 -1.70376,0.59632 -9.71146,0.59632 l 4.85573,9.28553 h -8.7744 l -4.08904,-9.28553 h -15.58945 q -5.28168,0 -7.3262,-1.70376 -2.04452,-1.70377 -2.04452,-6.81507 v -18.9118 q 0,-5.19649 2.12971,-6.98544 1.95933,-1.53339 7.24101,-1.53339 h 27.85657 q 5.36686,0 7.24101,1.53339 2.1297,1.78895 2.1297,6.98544 z m -8.77439,1.70377 v -22.48971 h -29.04921 v 22.48971 h 13.20418 l -3.74828,-7.75214 6.30393,-2.38527 4.94092,10.13741 z"
           style="line-height:125%"
           id="path79820" /><path
           d="m 220.45556,307.56964 q 0,5.1113 -2.12971,6.81506 -2.04452,1.70377 -7.32619,1.70377 h -23.85273 q -5.28167,0 -7.32619,-1.70377 -2.04452,-1.70376 -2.04452,-6.81506 v -27.51582 h 8.7744 v 29.30477 h 25.04536 v -29.30477 h 8.85958 z"
           style="line-height:125%"
           id="path79822" /><path
           d="m 245.24529,316.08847 h -8.7744 v -36.03465 h 8.7744 z"
           style="line-height:125%"
           id="path79824" /><path
           d="m 302.57704,307.56964 q 0,5.1113 -2.04452,6.81506 -2.04451,1.70377 -7.32619,1.70377 h -23.42678 q -5.79281,0 -7.66695,-1.87414 -1.78895,-1.95933 -1.78895,-7.66695 l 7.83732,-1.4482 v 4.25941 h 26.49356 v -8.26326 h -23.34159 q -5.28168,0 -7.24101,-1.61858 -2.21489,-1.78895 -2.21489,-6.90025 v -4.00385 q 0,-5.1113 2.21489,-6.90025 1.95933,-1.61858 7.24101,-1.61858 h 21.38226 q 5.45205,0 7.41138,1.70377 2.04452,1.70376 2.04452,6.98544 l -7.58176,1.61857 v -3.83347 h -24.78979 v 7.58176 h 23.42678 q 5.28168,0 7.32619,1.70376 2.04452,1.61858 2.04452,6.81507 z"
           style="line-height:125%"
           id="path79826" /><path
           d="m 362.80517,316.08847 h -8.77439 v -15.16352 h -27.43064 v 15.16352 h -8.85958 v -36.03465 h 8.85958 v 13.71532 h 27.43064 v -13.71532 h 8.77439 z"
           style="line-height:125%"
           id="path79828" /></g><g
         aria-label="lib"
         transform="scale(1.0257307,0.9749148)"
         id="text3041-8-6"
         style="font-weight:bold;font-size:85.4849px;line-height:0%;font-family:BankGothic;-inkscape-font-specification:'BankGothic, Bold';letter-spacing:0px;word-spacing:0px;display:inline;fill:url(#linearGradient51728);stroke:url(#linearGradient51730);stroke-width:1.13751"
         inkscape:label="Lib"><path
           d="M 132.7583,248.2854 H 95.486882 v -36.16011 h 8.890428 v 29.4068 h 28.38099 z"
           style="line-height:125%"
           id="path79831" /><path
           d="m 151.4795,248.2854 h -8.80495 v -36.16011 h 8.80495 z"
           style="line-height:125%"
           id="path79833" /><path
           d="m 208.83989,241.19015 q 0,7.09525 -11.19852,7.09525 h -30.09068 v -36.16011 h 32.48426 q 8.54849,0 8.54849,7.00976 v 4.35973 q 0,5.12909 -6.15491,6.15491 6.41136,1.02582 6.41136,6.92428 z m -8.89043,-17.18246 v -3.4194 q 0,-2.56454 -3.9323,-2.56454 h -19.74701 v 8.54849 h 19.74701 q 3.9323,0 3.9323,-2.56455 z m 0.34194,14.53243 v -2.73552 q 0,-2.05163 -1.19678,-2.73551 -0.85485,-0.51291 -3.07746,-0.51291 h -19.74701 v 9.23237 h 19.74701 q 2.22261,0 3.07746,-0.51291 1.19678,-0.68388 1.19678,-2.73552 z"
           style="line-height:125%"
           id="path79835" /></g></g></g></svg>
